<svg width="120" height="120" viewBox="0 0 120 120" fill="none" xmlns="http://www.w3.org/2000/svg">
<rect x="2.5" y="2.5" width="115" height="115" fill="white"/>
<rect x="2.5" y="2.5" width="115" height="115" stroke="black" stroke-width="5"/>
<path d="M27.4414 43.3776C27.4414 44.504 27.979 45.4 29.0542 46.0656C30.1294 46.7312 31.5118 47.064 33.2014 47.064C36.171 47.064 39.9854 46.04 44.6446 43.992C49.3038 41.944 52.171 40.92 53.2462 40.92C53.5534 40.92 53.707 41.2272 53.707 41.8416C53.707 42.456 53.5534 42.7632 53.2462 42.7632C50.123 42.7632 46.4878 46.4496 42.3406 53.8224C38.2446 61.1952 35.1214 68.568 32.971 75.9408C31.691 80.2416 31.051 83.16 31.051 84.696C31.051 86.232 31.3582 87 31.9726 87C31.4606 88.024 30.7182 88.536 29.7454 88.536C27.339 88.536 26.1358 86.9488 26.1358 83.7744C26.1358 82.4432 26.3406 80.8304 26.7502 78.936C28.2862 72.3312 31.563 64.984 36.5806 56.8944C39.3454 52.3888 42.1102 48.728 44.875 45.912C38.731 48.7792 33.8158 50.2128 30.1294 50.2128C26.443 50.2128 24.1902 48.9328 23.371 46.3728C23.1662 45.7072 23.0638 44.9136 23.0638 43.992C23.0638 43.0192 23.499 41.9952 24.3694 40.92C25.291 39.7936 26.4686 39.2304 27.9022 39.2304C28.3118 39.2304 28.6702 39.3328 28.9774 39.5376C29.2846 39.7424 29.515 40.024 29.6686 40.3824C28.6958 40.3824 28.0046 40.9968 27.595 42.2256C27.4926 42.6352 27.4414 43.0192 27.4414 43.3776ZM49.209 53.4384C49.209 52.8752 49.5674 52.5936 50.2842 52.5936H54.2778C54.5338 51.5696 54.8666 50.2896 55.2762 48.7536L56.3514 44.76C56.6586 43.5824 56.9146 42.5072 57.1194 41.5344C57.3754 40.5616 57.8362 40.0752 58.5018 40.0752C59.3722 40.0752 59.9866 40.7408 60.345 42.072C60.4986 42.6352 60.5754 43.3264 60.5754 44.1456C60.5754 44.9648 60.4218 46.0144 60.1146 47.2944L58.6554 52.5936H63.417C63.8778 52.5936 64.185 52.7472 64.3386 53.0544C64.5434 53.3616 64.5434 53.6688 64.3386 53.976C64.185 54.232 63.8778 54.36 63.417 54.36H58.1946C55.0202 66.2896 53.433 74.7376 53.433 79.704C53.433 83.3392 54.2522 85.1568 55.8906 85.1568C57.2218 85.1568 59.0906 83.3904 61.497 79.8576C63.9034 76.3248 65.977 72.792 67.7178 69.2592L70.329 63.96H72.4026C72.0954 64.5744 71.6858 65.4192 71.1738 66.4944C70.713 67.5184 69.7658 69.3872 68.3322 72.1008C66.8986 74.7632 65.5162 77.1184 64.185 79.1664C62.905 81.2144 61.4458 83.0832 59.8074 84.7728C58.2202 86.4112 56.7354 87.2304 55.353 87.2304C53.9706 87.2304 52.7674 86.7952 51.7434 85.9248C50.7706 85.0032 50.1562 83.7232 49.9002 82.0848C49.593 80.3952 49.4394 78.68 49.4394 76.9392C49.4394 72.8944 50.873 65.368 53.7402 54.36H50.2842C49.8746 54.36 49.593 54.2576 49.4394 54.0528C49.2858 53.7968 49.209 53.592 49.209 53.4384ZM85.7337 24.408C88.0377 24.408 89.1897 25.944 89.1897 29.016C89.1897 29.784 89.1129 30.68 88.9593 31.704C88.1913 36.568 86.1689 41.5856 82.8921 46.7568C80.5369 50.4944 78.3097 52.8496 76.2105 53.8224C75.1865 59.352 74.2905 64.3696 73.5225 68.8752H74.0601C78.3609 59.3008 82.7129 54.5136 87.1161 54.5136C88.7033 54.5136 89.9321 55 90.8025 55.9728C91.7241 56.9456 92.1849 58.2768 92.1849 59.9664C92.1849 61.656 91.5193 65.368 90.1881 71.1024C88.8569 76.7856 88.1913 80.7536 88.1913 83.0064C88.1913 86.3344 88.8057 87.9984 90.0345 87.9984C90.0345 88.3568 89.8041 88.7152 89.3433 89.0736C88.8825 89.432 88.3449 89.6112 87.7305 89.6112C84.7609 89.6112 83.2761 87.2816 83.2761 82.6224C83.2761 79.7552 84.0185 75.5056 85.5033 69.8736C87.0393 64.1904 87.8073 60.5296 87.8073 58.8912C87.8073 57.2528 87.1673 56.4336 85.8873 56.4336C84.4025 56.4336 82.7641 57.688 80.9721 60.1968C79.1801 62.7056 77.5161 65.9056 75.9801 69.7968C73.4201 76.0432 71.5001 81.2656 70.2201 85.464C69.9129 86.488 69.4777 87 68.9145 87C67.9929 87 67.3017 86.4368 66.8409 85.3104C66.5849 84.696 66.4569 84.056 66.4569 83.3904C66.4569 82.6736 66.6617 81.3936 67.0713 79.5504C67.4809 77.656 68.1721 74.3536 69.1449 69.6432C70.0665 64.9328 70.8601 61.0416 71.5257 57.9696C72.1913 54.8464 72.9593 51.3648 73.8297 47.5248C74.7001 43.6336 75.5193 40.4848 76.2873 38.0784C77.1065 35.6208 78.0281 33.2656 79.0521 31.0128C80.9977 26.6096 83.2249 24.408 85.7337 24.408ZM87.4233 29.1696C87.4233 27.5312 86.9625 26.5328 86.0409 26.1744C83.0201 26.1744 79.8969 34.6224 76.6713 51.5184C78.7193 50.0848 80.8441 47.2176 83.0457 42.9168C85.9641 37.1312 87.4233 32.5488 87.4233 29.1696Z" fill="black"/>
</svg>
