<svg width="26" height="16" viewBox="0 0 26 16" fill="none" xmlns="http://www.w3.org/2000/svg">
<g clip-path="url(#clip0_2_24)">
<path fill-rule="evenodd" clip-rule="evenodd" d="M22.238 10.3355C23.1231 11.1205 23.9595 11.9589 24.7425 12.8468C25.0849 13.2541 25.3872 13.6937 25.6453 14.1596C25.9861 14.8445 25.6794 15.5869 25.0774 15.644H21.3464C20.9045 15.6647 20.4633 15.5886 20.0535 15.421C19.6436 15.2535 19.2749 14.9984 18.9727 14.6735C18.456 14.1027 17.9733 13.5887 17.4793 13.0179C17.2828 12.7814 17.0576 12.5707 16.8091 12.3903C16.7139 12.3045 16.5989 12.2441 16.4745 12.2147C16.3501 12.1852 16.2204 12.1878 16.0972 12.2219C15.9739 12.256 15.8612 12.3205 15.7693 12.4098C15.6774 12.499 15.6093 12.6099 15.5711 12.7325C15.3039 13.2834 15.1678 13.8895 15.1737 14.5024C15.1339 15.3586 14.8726 15.5869 13.9867 15.644C12.1353 15.7861 10.2823 15.3898 8.64873 14.5024C7.22516 13.6284 6.00193 12.4611 5.05969 11.0775C3.18762 8.41887 1.60186 5.5676 0.32921 2.57214C0.0339126 1.88716 0.249796 1.48793 0.988039 1.48793H4.63947C4.8724 1.48907 5.09829 1.56782 5.28138 1.71257C5.46447 1.85732 5.59432 2.05945 5.65031 2.28673C6.30325 3.9151 7.13369 5.46609 8.12632 6.91066C8.36001 7.31801 8.67983 7.66865 9.06327 7.93802C9.13459 8.01458 9.2256 8.06986 9.32627 8.09744C9.42695 8.12502 9.53326 8.12369 9.63337 8.0941C9.73347 8.0645 9.82353 8.00763 9.89332 7.92965C9.96311 7.85168 10.0099 7.75579 10.0286 7.65261C10.1548 7.34379 10.2278 7.01554 10.2445 6.68211C10.3572 5.54196 10.3361 4.39246 10.182 3.25723C10.1573 2.94196 10.0252 2.64482 9.80792 2.41606C9.59068 2.1873 9.30154 2.0408 8.98937 2.00132C8.63161 1.88716 8.68273 1.77311 8.85877 1.54478C8.98887 1.3625 9.16161 1.21509 9.36163 1.11556C9.56164 1.01603 9.78281 0.967436 10.0059 0.97397H14.2197C14.8841 1.14521 15.0316 1.43062 15.1225 2.1156V6.85325C15.1225 7.08157 15.2531 7.88105 15.7188 8.05229C15.8825 8.07604 16.0494 8.05033 16.1989 7.97927C16.3484 7.90821 16.4737 7.79483 16.5593 7.65261C17.5282 6.53917 18.3298 5.28915 18.9386 3.94232C19.2226 3.3715 19.4668 2.74349 19.7053 2.1156C19.7647 1.91435 19.893 1.74059 20.0677 1.62561C20.2424 1.51063 20.4521 1.46211 20.6593 1.48793H25.0661C25.7532 1.60209 25.9407 1.94424 25.7306 2.57214C25.3575 3.60957 24.8101 4.57495 24.1121 5.42621C23.4363 6.39659 22.7095 7.31012 22.0394 8.22342C21.4261 9.13673 21.4714 9.53641 22.238 10.3355Z" fill="#FFC24D"/>
</g>
<defs>
<clipPath id="clip0_2_24">
<rect width="25.6057" height="14.6699" fill="white" transform="translate(0.204224 0.973877)"/>
</clipPath>
</defs>
</svg>
