<svg width="26" height="23" viewBox="0 0 26 23" fill="none" xmlns="http://www.w3.org/2000/svg">
<g clip-path="url(#clip0_2_18)">
<path d="M25.0746 1.49497L20.8514 21.5009C20.752 21.9732 20.1896 22.1873 19.7928 21.9033L14.0278 17.7812C13.6778 17.5309 13.2006 17.5442 12.8655 17.8133L9.66919 20.3793C9.29829 20.678 8.7393 20.5115 8.59726 20.0616L6.37783 13.032L0.643775 10.9244C0.0613097 10.7095 0.0563411 9.8997 0.637148 9.67936L24.1698 0.73865C24.6686 0.548656 25.1833 0.979061 25.0746 1.49497ZM19.4461 5.11272L8.23969 11.9101C7.81017 12.1712 7.60802 12.682 7.74659 13.1603L8.95818 17.3531C9.04437 17.6502 9.48205 17.6198 9.52399 17.3129L9.83888 15.0136C9.89837 14.5807 10.108 14.1817 10.4331 13.8837L19.6815 5.41709C19.8547 5.25915 19.6474 4.99096 19.4461 5.11272Z" fill="#FFC24D"/>
</g>
<defs>
<clipPath id="clip0_2_18">
<rect width="25.6057" height="21.3381" fill="white" transform="translate(0.204224 0.692871)"/>
</clipPath>
</defs>
</svg>
