<svg width="30" height="29" viewBox="0 0 30 29" fill="none" xmlns="http://www.w3.org/2000/svg">
<path fill-rule="evenodd" clip-rule="evenodd" d="M13.981 16.0388C13.438 15.9682 12.9176 15.8142 12.4492 15.585L2.0501 11.3467V19.5706C2.04785 19.731 2.08625 19.8903 2.16292 20.0387C2.23959 20.1871 2.35295 20.3219 2.49641 20.4348C2.63987 20.5478 2.81056 20.6364 2.99813 20.696C3.18569 20.7556 3.38644 20.7848 3.58845 20.7817H24.5581C24.7595 20.783 24.9592 20.7528 25.1458 20.6925C25.3323 20.6323 25.502 20.543 25.645 20.4304C25.788 20.3178 25.9015 20.1843 25.979 20.0367C26.0564 19.8891 26.0963 19.7305 26.0963 19.5706V11.3467L15.6083 15.6861C15.0925 15.8707 14.5434 15.9895 13.981 16.0388ZM24.469 6.6546H3.49937C3.29797 6.65327 3.09824 6.68353 2.91169 6.74378C2.72513 6.80404 2.55547 6.89333 2.41246 7.00591C2.26945 7.11848 2.15596 7.25201 2.0785 7.39959C2.00104 7.54716 1.96117 7.70582 1.96118 7.86569V8.72302L13.8921 13.6679L25.823 8.72302V7.76469C25.839 7.61874 25.8154 7.47162 25.7536 7.33356C25.6919 7.19551 25.5935 7.06977 25.4651 6.96452C25.3368 6.85927 25.1814 6.77703 25.0095 6.72358C24.8377 6.67013 24.6533 6.6466 24.469 6.6546Z" fill="#FFC24D"/>
</svg>
